# xmcd
#
# Track frame offsets: 
#        150
#        10227
#        20297
#        33417
#        44900
#        53617
#        65845
#        77365
#        88787
#        97940
#        110767
#        124427
#        135802
#        149425
#        163055
#
# Disc length: 2349 seconds
#
# Revision: 3
# Processed by: cddbd v1.5.2PL0 Copyright (c) Steve Scherf et al.
# Submitted via: ExactAudioCopy v0.99pb5
#
DISCID=c9092b0f
DTITLE=Various Artist - Classic Country Vol. 6 Golden '50s Disc 1
DYEAR=1998
DGENRE=Country
TTITLE0=Johnny Horton - Honky-Tonk Man
TTITLE1=George Jones - Why Baby Why
TTITLE2=Hank Williams - Jambalaya (On The Bayou)
TTITLE3=Marvin Rainwater - Gonna Find Me A Bluebird
TTITLE4=Webb Pierce - I Ain't Never
TTITLE5=Bonnie Guitar - Dark Moon
TTITLE6=Ricky Nelson - Poor Little Fool
TTITLE7=Marty Robbins - The Story Of My Life
TTITLE8=Everly Brothers - Wake Up Little Susie
TTITLE9=Elvis Presley - Don't
TTITLE10=Pee Wee King - Slow Poke
TTITLE11=Billy Grammer - Gotta Travel On
TTITLE12=Davis Sisters - I Forgot More Than You'll Ever Know
TTITLE13=Ray Price - City Lights
TTITLE14=Hank Snow - I Don't Hurt Anymore
EXTD=
EXTT0=
EXTT1=
EXTT2=
EXTT3=
EXTT4=
EXTT5=
EXTT6=
EXTT7=
EXTT8=
EXTT9=
EXTT10=
EXTT11=
EXTT12=
EXTT13=
EXTT14=
PLAYORDER=
